<?xml version="1.0" encoding="UTF-8"?>
<!DOCTYPE svg PUBLIC "-//W3C//DTD SVG 1.1//EN" "http://www.w3.org/Graphics/SVG/1.1/DTD/svg11.dtd">
<!-- Creator: CorelDRAW -->
<svg xmlns="http://www.w3.org/2000/svg" xml:space="preserve" width="2048px" height="2048px" style="shape-rendering:geometricPrecision; text-rendering:geometricPrecision; image-rendering:optimizeQuality; fill-rule:evenodd; clip-rule:evenodd"
viewBox="0 0 2048 2048"
 xmlns:xlink="http://www.w3.org/1999/xlink">
 <defs>
  <style type="text/css">
   <![CDATA[
    .fil2 {fill:none}
    .fil0 {fill:#212121;fill-rule:nonzero}
    .fil1 {fill:#66BB6A;fill-rule:nonzero}
   ]]>
  </style>
 </defs>
 <g id="Layer_x0020_1">
  <metadata id="CorelCorpID_0Corel-Layer"/>
  <path class="fil0" d="M1544.76 303.999l-1041.52 0 0 1440 1041.52 0 0 -1440zm-1065.52 -48l1089.52 0c13.2543,0 24,10.7457 24,24l0 1488c0,13.2543 -10.7457,24 -24,24l-1089.52 0c-13.2543,0 -24,-10.7457 -24,-24l0 -1488c0,-13.2543 10.7457,-24 24,-24z"/>
  <polygon class="fil1" points="1219.57,724.169 611.566,724.169 611.566,676.169 1219.57,676.169 "/>
  <polygon class="fil1" points="1333.43,661.721 1357.1,685.394 1419.47,623.03 1453.41,656.967 1374.07,736.301 1357.1,753.27 1340.13,736.301 1299.49,695.659 "/>
  <polygon class="fil1" points="1219.57,1001.5 611.566,1001.5 611.566,953.502 1219.57,953.502 "/>
  <polygon class="fil1" points="1333.43,939.055 1357.1,962.728 1419.47,900.363 1453.41,934.301 1374.07,1013.63 1357.1,1030.6 1340.13,1013.63 1299.49,972.993 "/>
  <polygon class="fil1" points="1219.57,1278.84 611.566,1278.84 611.566,1230.84 1219.57,1230.84 "/>
  <polygon class="fil1" points="1333.43,1216.39 1357.1,1240.06 1419.47,1177.7 1453.41,1211.63 1374.07,1290.97 1357.1,1307.94 1340.13,1290.97 1299.49,1250.33 "/>
  <polygon class="fil1" points="1219.57,1556.17 611.566,1556.17 611.566,1508.17 1219.57,1508.17 "/>
  <polygon class="fil1" points="1333.43,1493.72 1357.1,1517.39 1419.47,1455.03 1453.41,1488.97 1374.07,1568.3 1357.1,1585.27 1340.13,1568.3 1299.49,1527.66 "/>
  <polygon class="fil1" points="799.999,452.165 1248,452.165 1248,500.165 799.999,500.165 "/>
 </g>
 <rect class="fil2" width="2048" height="2048"/>
</svg>
